<?xml version="1.0" standalone="no"?>
<!DOCTYPE svg PUBLIC "-//W3C//DTD SVG 20010904//EN"
 "http://www.w3.org/TR/2001/REC-SVG-20010904/DTD/svg10.dtd">
<svg version="1.0" xmlns="http://www.w3.org/2000/svg"
 width="512.000000pt" height="512.000000pt" viewBox="0 0 512.000000 512.000000"
 preserveAspectRatio="xMidYMid meet">
<metadata>
Created by potrace 1.16, written by Peter Selinger 2001-2019
</metadata>
<g transform="translate(0.000000,512.000000) scale(0.100000,-0.100000)"
fill="#000000" stroke="none">
<path d="M182 4937 c-170 -170 -183 -186 -180 -216 3 -31 8 -27 218 184 211
212 214 215 180 215 -32 0 -51 -15 -218 -183z"/>
<path d="M282 4837 c-265 -265 -283 -286 -280 -316 3 -30 12 -22 318 284 307
307 314 315 280 315 -33 0 -55 -20 -318 -283z"/>
<path d="M382 4737 c-360 -360 -383 -386 -380 -415 3 -31 17 -19 418 383 402
402 414 415 380 415 -33 0 -60 -25 -418 -383z"/>
<path d="M482 4637 c-456 -456 -483 -485 -480 -515 3 -31 21 -14 518 483 497
497 514 515 480 515 -33 0 -65 -30 -518 -483z"/>
<path d="M582 4537 c-551 -551 -583 -585 -580 -615 3 -31 26 -9 618 583 592
592 614 615 580 615 -33 0 -69 -34 -618 -583z"/>
<path d="M682 4437 c-647 -647 -683 -685 -680 -715 3 -31 31 -5 718 683 688
688 714 715 680 715 -33 0 -74 -39 -718 -683z"/>
<path d="M782 4337 c-742 -742 -783 -785 -780 -815 3 -31 35 0 818 783 783
783 814 815 780 815 -33 0 -79 -44 -818 -783z"/>
<path d="M882 4237 c-837 -837 -883 -885 -880 -915 3 -31 40 5 918 883 878
878 914 915 880 915 -33 0 -84 -49 -918 -883z"/>
<path d="M982 4137 c-928 -928 -982 -984 -982 -1017 0 -34 12 -23 386 350 379
379 385 384 325 294 -33 -50 -78 -124 -100 -165 -35 -64 -79 -113 -326 -359
-265 -265 -285 -287 -285 -320 0 -34 5 -29 254 219 l255 254 -34 -89 c-19 -49
-34 -94 -35 -99 0 -6 -99 -109 -220 -230 -203 -203 -220 -223 -220 -255 0 -34
3 -32 200 165 110 110 200 195 200 188 0 -6 -7 -42 -16 -80 l-15 -68 -185
-185 c-168 -169 -184 -188 -184 -220 0 -34 2 -33 178 143 l179 178 -10 -73 -9
-73 -169 -170 c-154 -155 -169 -173 -169 -205 0 -34 2 -33 169 134 l170 169
-3 -67 -3 -68 -167 -167 c-151 -151 -166 -169 -166 -201 0 -34 3 -32 193 157
105 105 202 194 214 198 13 3 25 16 29 29 3 12 250 267 549 566 l543 543 -34
-99 -35 -99 -729 -730 c-688 -688 -730 -732 -730 -765 0 -34 28 -7 716 680
475 474 714 707 711 690 -4 -14 -11 -50 -18 -80 l-11 -55 -699 -700 c-658
-659 -699 -702 -699 -735 0 -34 4 -31 216 180 167 166 211 206 196 175 -11
-22 -28 -67 -37 -100 -16 -57 -25 -68 -196 -240 -163 -164 -179 -183 -179
-215 0 -34 2 -33 173 138 l172 172 -3 -68 -4 -69 -169 -169 c-154 -154 -169
-172 -169 -204 0 -34 2 -33 175 140 115 115 176 169 179 159 3 -7 9 -30 14
-50 l10 -36 -189 -189 c-173 -173 -189 -192 -189 -224 0 -34 3 -32 198 163
l198 198 21 -44 21 -44 -219 -219 c-202 -202 -219 -222 -219 -254 0 -34 4 -30
234 199 l234 234 18 -28 c11 -16 14 -29 7 -33 -42 -28 -364 -308 -385 -335
-30 -38 -56 -86 -87 -160 -19 -43 -21 -70 -21 -226 0 -114 4 -181 11 -188 8
-8 8 -13 0 -17 -6 -4 -11 -24 -11 -44 0 -36 5 -32 418 381 l417 417 65 0 65 0
-483 -483 c-452 -452 -482 -484 -482 -517 0 -34 19 -16 533 496 339 339 548
540 577 556 25 13 55 31 67 38 20 13 25 13 40 -3 17 -16 -11 -46 -577 -612
-573 -573 -594 -595 -560 -595 33 0 70 35 615 580 l580 579 34 -31 34 -30
-549 -549 c-529 -530 -548 -549 -514 -549 33 0 67 32 565 530 291 292 533 530
537 530 3 0 21 -12 38 -27 l32 -26 -504 -504 c-485 -485 -502 -503 -468 -503
33 0 65 30 522 487 l488 488 32 -33 33 -32 -455 -455 c-440 -440 -454 -455
-420 -455 33 0 63 28 472 437 l436 436 21 -34 c12 -19 21 -38 21 -44 0 -5
-177 -187 -392 -402 -381 -381 -392 -393 -358 -393 33 0 59 24 400 365 201
201 368 365 372 365 3 0 9 -23 13 -51 l7 -52 -313 -313 c-305 -305 -313 -314
-279 -314 32 0 55 20 312 277 l278 278 0 -65 0 -65 -212 -212 c-209 -210 -212
-213 -178 -213 32 0 51 15 220 185 163 163 189 185 217 185 36 0 63 29 63 70
0 20 71 96 333 357 l332 332 58 -6 59 -6 -558 -558 c-538 -538 -558 -559 -524
-559 33 0 70 35 600 564 516 515 568 564 605 571 22 3 69 22 105 41 61 32 25
-5 -540 -571 -582 -582 -604 -605 -570 -605 33 0 70 35 632 597 l596 596 35
-29 35 -29 -567 -567 c-545 -547 -565 -568 -531 -568 33 0 68 33 585 550 l550
550 35 -29 35 -30 -520 -520 c-502 -503 -519 -521 -485 -521 33 0 66 31 540
505 l505 504 34 -31 34 -30 -474 -474 c-458 -458 -473 -474 -439 -474 33 0 64
29 493 458 l457 457 25 -30 c13 -16 24 -34 25 -40 0 -5 -188 -198 -417 -427
-405 -405 -417 -418 -383 -418 33 0 61 25 430 395 217 217 398 391 401 387 4
-4 12 -25 18 -47 l11 -40 -348 -347 c-337 -338 -346 -348 -312 -348 32 0 57
22 347 312 l313 313 0 -65 0 -65 -247 -247 c-242 -242 -247 -248 -213 -248 32
0 52 17 246 211 l211 211 17 -26 c9 -15 26 -26 39 -26 17 0 -21 -43 -163 -185
-183 -183 -184 -185 -150 -185 33 0 69 34 595 560 554 554 560 560 600 560 22
0 56 5 75 10 29 8 -68 -93 -535 -560 -549 -550 -569 -570 -535 -570 33 0 71
36 645 610 335 336 614 610 619 610 6 0 23 -12 38 -27 l29 -27 -583 -583
c-561 -562 -582 -583 -548 -583 33 0 69 34 601 566 l567 567 37 -28 36 -28
-538 -539 c-519 -519 -537 -538 -503 -538 33 0 67 32 557 522 l521 521 35 -29
35 -29 -492 -493 c-474 -475 -490 -492 -456 -492 33 0 64 29 510 475 l474 475
33 -32 34 -32 -443 -443 c-428 -428 -442 -443 -408 -443 33 0 62 27 457 422
l422 422 20 -44 20 -45 -377 -377 c-366 -367 -376 -378 -342 -378 33 0 58 23
380 345 230 230 347 340 352 332 4 -7 8 -32 8 -57 l0 -45 -287 -287 c-281
-281 -287 -288 -253 -288 33 0 54 19 285 250 l250 250 5 -57 5 -58 -190 -193
c-187 -190 -189 -193 -153 -190 33 3 57 23 237 202 l201 198 0 162 c0 88 -4
176 -9 193 -6 20 -6 35 0 38 5 4 9 23 9 43 0 34 -1 35 -17 19 -16 -15 -18 -14
-40 25 l-24 41 41 42 c31 32 40 48 40 75 l0 34 -55 -54 -55 -54 -32 32 -33 32
88 88 c76 76 87 92 87 122 l0 35 -107 -107 -108 -107 -35 30 -35 29 143 143
c128 128 142 146 142 177 0 34 -1 34 -158 -123 -86 -86 -162 -157 -168 -157
-6 0 -22 13 -37 28 l-27 28 195 194 c179 179 195 198 195 230 0 34 -3 31 -214
-179 l-214 -213 -31 23 c-17 12 -31 27 -31 33 0 6 110 121 245 256 226 226
245 248 245 280 0 34 -3 32 -188 -153 l-188 -188 21 86 22 87 167 167 c151
151 166 169 166 201 0 34 -1 33 -164 -129 l-163 -163 -7 58 -7 58 171 171
c155 155 170 173 170 205 0 34 -2 33 -174 -139 l-173 -173 -17 48 -16 48 190
191 c174 174 190 193 190 225 0 34 -3 32 -200 -165 -109 -109 -201 -197 -203
-195 -2 3 -13 21 -24 41 l-21 36 224 224 c207 207 224 227 224 259 0 34 -5 30
-238 -203 l-238 -237 -32 33 -32 33 270 269 c250 250 270 272 270 305 0 35 -1
34 -163 -128 -90 -89 -166 -160 -170 -156 -4 4 -7 30 -7 58 l0 51 170 170
c155 155 170 173 170 205 0 34 -1 33 -170 -135 -93 -93 -171 -167 -173 -165
-3 3 -7 28 -9 57 l-5 51 179 179 c163 163 178 181 178 213 0 34 -2 33 -183
-148 l-184 -184 -11 54 -11 53 195 195 c178 179 194 198 194 230 0 34 -3 32
-200 -165 -109 -109 -201 -197 -203 -195 -2 3 -9 25 -16 49 l-13 44 216 216
c199 199 216 219 216 251 0 34 -4 30 -223 -188 l-224 -224 -18 47 -18 47 242
242 c222 223 241 244 241 276 0 34 -6 29 -250 -215 -137 -137 -251 -247 -254
-245 -2 3 -11 23 -20 45 l-17 39 271 271 c250 250 270 273 270 305 0 34 -7 28
-283 -248 l-283 -283 -21 44 -21 44 304 304 c283 283 304 306 304 339 0 34 -8
26 -317 -282 l-318 -318 -24 42 -23 41 341 341 c318 318 341 343 341 376 0 34
-11 24 -353 -318 -193 -193 -355 -352 -359 -352 -3 0 -16 16 -29 36 l-22 36
382 382 c356 356 381 383 381 416 0 34 -13 22 -398 -363 l-397 -397 -29 36
-29 36 427 427 c399 399 426 428 426 461 0 34 -15 20 -443 -408 l-444 -444
-26 32 c-15 17 -27 35 -27 38 0 4 212 219 470 477 441 441 470 472 470 505 0
34 -17 18 -490 -455 l-490 -490 -32 33 -33 32 480 480 c463 463 479 480 445
480 -33 0 -64 -29 -500 -465 l-465 -464 -34 31 -34 30 434 434 c420 420 433
434 399 434 -33 0 -62 -27 -455 -420 l-420 -419 -35 29 -35 29 390 391 c378
378 389 390 355 390 -33 0 -60 -25 -411 -376 l-377 -377 -36 22 c-20 13 -36
26 -36 29 0 4 156 163 347 354 338 338 347 348 313 348 -33 0 -58 -23 -370
-335 -184 -184 -339 -335 -344 -335 -5 0 -24 10 -43 21 l-35 22 313 313 c305
305 313 314 279 314 -32 0 -56 -21 -337 -302 l-302 -302 -40 19 c-23 10 -41
21 -41 24 0 3 125 131 277 283 271 271 277 278 243 278 -32 0 -55 -20 -305
-270 l-271 -271 -47 18 -47 17 252 253 c248 248 252 253 218 253 -33 0 -53
-18 -279 -244 l-243 -243 -50 15 -49 16 228 228 c223 223 227 228 193 228 -32
0 -52 -18 -255 -220 l-221 -221 -52 13 -53 12 208 208 c204 204 207 208 173
208 -32 0 -51 -17 -236 -201 l-201 -201 -58 7 -57 8 193 193 c191 191 193 194
159 194 -32 0 -51 -16 -226 -191 l-191 -191 -58 7 -57 8 183 183 c182 182 183
184 149 184 -32 0 -51 -15 -220 -185 l-185 -185 -65 0 -65 0 185 185 c182 183
184 185 150 185 -32 0 -51 -16 -225 -189 l-190 -189 -70 -6 -69 -6 194 195
c192 192 194 195 160 195 -32 0 -52 -17 -240 -203 l-205 -204 -63 -12 c-35 -6
-71 -15 -80 -18 -9 -3 82 94 203 216 216 217 219 221 185 221 -32 0 -53 -18
-270 -234 l-235 -235 -100 -35 -100 -36 270 270 c264 264 269 270 235 270 -33
0 -56 -21 -335 -300 -260 -260 -310 -306 -375 -342 -41 -22 -118 -70 -170
-105 -94 -63 -90 -59 310 341 392 393 404 406 370 406 -33 0 -89 -54 -1018
-983z m1498 500 c0 -1 -136 -137 -302 -302 -227 -227 -287 -282 -245 -226 59
77 67 100 43 124 -12 12 12 40 177 204 106 105 199 193 207 196 15 5 120 9
120 4z m367 -15 c9 -5 -28 -48 -112 -132 l-125 -125 0 65 0 64 67 68 c64 64
70 68 113 68 25 0 51 -4 57 -8z m-998 -418 l-416 -416 -36 23 c-20 13 -37 26
-37 29 0 3 169 174 375 380 368 368 376 375 427 386 118 26 130 41 -313 -402z
m1168 387 c8 -4 -63 -82 -197 -216 l-210 -210 0 65 0 65 158 158 157 158 40
-7 c22 -3 46 -9 52 -13z m-910 -529 c-442 -442 -475 -468 -396 -310 39 80 56
98 417 461 l377 377 3 -62 3 -62 -404 -404z m-441 159 l-350 -350 -32 27 c-18
15 -33 29 -33 32 -1 3 131 136 292 297 l292 292 80 24 c44 14 84 26 90 26 5 1
-147 -156 -339 -348z m1492 336 l32 -12 -290 -290 -290 -290 0 65 0 65 237
237 c159 159 245 238 258 237 11 0 35 -6 53 -12z m134 -45 l47 -18 -364 -364
-365 -365 0 65 0 65 317 317 c175 175 318 318 318 318 0 0 21 -8 47 -18z m143
-59 c19 -9 35 -19 35 -23 0 -3 -49 -55 -110 -115 -109 -109 -110 -109 -126
-87 -9 13 -26 22 -42 22 -24 0 -15 11 83 110 60 61 113 110 117 110 4 0 23 -8
43 -17z m-1977 -240 l-248 -248 -29 35 -30 35 152 150 c146 145 157 153 272
213 66 34 122 62 125 62 3 0 -106 -111 -242 -247z m2142 149 c0 -4 -59 -66
-132 -139 l-131 -132 -28 37 -27 37 121 122 120 122 39 -20 c21 -11 38 -23 38
-27z m-1418 -425 c-328 -328 -329 -329 -363 -322 -20 4 -42 11 -50 16 -11 6
74 96 361 384 l375 375 3 -62 3 -62 -329 -329z m1392 192 c-109 -110 -161
-155 -166 -146 -5 7 -16 25 -24 41 l-16 29 143 143 142 142 39 -26 39 -25
-157 -158z m98 -101 c-97 -98 -179 -178 -182 -178 -3 0 -15 17 -27 38 l-22 37
166 167 167 167 37 -27 38 -27 -177 -177z m-515 119 c16 -17 2 -33 -263 -298
l-279 -279 -3 62 -3 62 258 258 c234 234 258 256 266 236 4 -13 15 -31 24 -41z
m-894 -330 l-248 -248 -43 5 c-24 3 -48 9 -54 12 -6 4 124 141 288 305 l299
299 3 -62 3 -62 -248 -249z m1662 323 l29 -31 -201 -201 -201 -201 -20 44 -20
44 187 188 c102 103 188 187 192 187 3 0 18 -14 34 -30z m-914 -373 l-246
-247 -70 -6 -70 -6 289 290 289 290 28 -36 27 -37 -247 -248z m-1321 181 c-17
-29 -51 -92 -76 -140 -24 -49 -48 -88 -54 -88 -5 0 -25 10 -45 21 l-37 22 118
118 c65 66 120 119 122 119 1 0 -11 -24 -28 -52z m657 -246 l-165 -165 -57 8
-58 7 219 219 219 219 3 -62 3 -62 -164 -164z m1795 224 c9 -16 -22 -51 -233
-262 -134 -134 -246 -240 -250 -236 -4 4 -12 24 -19 46 l-12 38 233 234 c224
224 234 233 252 216 10 -9 23 -25 29 -36z m-828 -1 l20 -36 -174 -174 -174
-174 -55 -6 c-31 -4 -65 -9 -76 -12 -11 -3 81 96 204 220 124 124 227 224 230
222 3 -2 15 -20 25 -40z m-2208 -11 l23 -30 -250 -249 c-272 -271 -276 -273
-168 -80 42 75 76 115 202 243 84 83 156 151 161 149 5 -2 20 -17 32 -33z
m3109 -71 c13 -16 25 -33 25 -38 0 -6 -121 -131 -269 -279 l-269 -269 -11 39
c-6 21 -11 46 -11 54 0 12 496 520 508 520 2 0 14 -12 27 -27z m-2989 -45 c6
-10 -696 -722 -704 -713 -2 2 8 41 23 87 l27 83 296 297 296 297 28 -20 c15
-11 30 -25 34 -31z m2159 1 l19 -40 -83 -83 c-79 -80 -85 -83 -154 -99 -40
-10 -76 -17 -82 -17 -5 0 53 63 130 140 77 77 142 140 146 140 3 0 14 -18 24
-41z m-947 -206 c-67 -68 -76 -73 -114 -73 -86 0 -85 4 53 142 l128 128 3 -62
3 -61 -73 -74z m-1529 -329 c-244 -244 -444 -442 -445 -441 -1 1 4 36 12 77
l14 75 392 392 391 391 39 -26 39 -26 -442 -442z m3400 452 l22 -30 -298 -298
-298 -298 -11 52 -11 53 281 282 c154 156 283 279 287 275 3 -4 16 -20 28 -36z
m-2839 -85 c0 -4 -232 -238 -515 -521 l-515 -515 6 70 6 70 471 472 471 472
38 -21 c21 -12 38 -24 38 -27z m2914 -36 l20 -36 -319 -319 c-176 -176 -322
-316 -326 -312 -4 4 -9 27 -12 52 l-4 45 305 307 c168 169 308 305 311 303 3
-2 15 -20 25 -40z m-875 -77 l13 -41 -548 -548 c-391 -391 -556 -550 -577
-555 -48 -10 -175 -102 -223 -162 -25 -31 -63 -90 -84 -132 -35 -69 -68 -104
-407 -442 -338 -337 -370 -366 -386 -353 -18 13 -18 15 11 57 16 24 39 61 50
83 27 52 1157 1182 1166 1166 9 -15 59 -14 74 1 7 7 12 32 12 57 l0 46 432
432 c238 238 438 433 444 433 6 0 16 -19 23 -42z m-1752 -2 c1 -1 -47 -51
-108 -112 l-109 -109 15 50 c8 28 20 67 26 88 5 21 26 56 45 77 l35 38 47 -15
c26 -9 48 -17 49 -17z m1228 -376 l-370 -370 -3 62 -3 62 287 287 287 288 76
19 c42 11 80 20 86 21 5 1 -157 -166 -360 -369z m1481 306 c5 -15 -66 -91
-342 -368 l-349 -348 -6 57 -6 58 331 333 331 332 17 -22 c10 -13 20 -31 24
-42z m-2592 38 c20 -3 36 -9 36 -13 0 -3 -94 -101 -210 -216 -115 -115 -210
-205 -210 -200 0 6 7 41 15 80 l15 70 147 147 c82 82 153 146 160 144 6 -3 28
-8 47 -12z m188 -43 c14 -5 -51 -75 -293 -316 -275 -274 -311 -306 -305 -276
3 18 6 50 6 69 0 34 17 53 252 289 251 252 253 253 288 247 19 -4 43 -10 52
-13z m793 -231 l-240 -240 -3 62 -3 62 166 166 167 167 66 10 c37 6 71 11 77
11 5 1 -98 -106 -230 -238z m-598 206 c1 -1 -180 -184 -402 -406 l-405 -405 0
65 0 64 348 349 347 348 55 -7 c30 -4 56 -7 57 -8z m483 -121 l-125 -125 -3
61 -3 62 57 58 c55 55 60 58 113 62 31 2 63 4 71 5 8 1 -41 -54 -110 -123z
m819 70 l11 -40 -463 -462 -462 -463 -65 0 -65 0 510 510 c280 280 513 506
516 502 4 -4 12 -25 18 -47z m-1696 -547 l-593 -593 -32 33 -33 32 90 90 c49
49 96 90 104 90 20 0 51 30 51 49 0 9 197 213 437 453 l438 438 65 0 65 0
-592 -592z m70 -130 l-579 -579 -26 38 -25 38 601 603 601 602 3 -62 3 -62
-578 -578z m2597 607 c0 -6 -169 -179 -375 -385 l-375 -375 0 65 0 65 358 358
357 358 17 -38 c10 -21 18 -43 18 -48z m-1328 -538 l-408 -408 -47 18 -47 17
442 443 443 443 12 -52 12 -53 -407 -408z m1368 427 l13 -46 -734 -734 -734
-734 -3 62 -3 62 718 718 c395 395 721 718 724 718 4 0 12 -21 19 -46z m-2608
-667 l-549 -549 -18 47 -18 47 564 564 564 564 3 -62 3 -62 -549 -549z m1669
526 l9 -48 -362 -362 c-200 -200 -366 -363 -370 -363 -3 0 -21 12 -38 27 l-32
26 388 388 c214 214 390 386 392 384 3 -2 8 -26 13 -52z m986 -19 l10 -41
-825 -824 c-454 -453 -816 -810 -805 -794 29 43 68 123 83 170 10 33 138 166
763 792 413 414 754 749 758 745 3 -4 11 -25 16 -48z m-3246 -39 l-10 -69
-257 -257 c-246 -247 -259 -257 -303 -264 -25 -4 -66 -15 -91 -26 -39 -17 5
31 310 335 195 195 356 354 357 352 2 -2 -1 -34 -6 -71z m607 -652 c-575 -575
-544 -550 -547 -453 -1 33 25 61 537 573 l537 537 3 -62 3 -62 -533 -533z
m1355 155 c-181 -181 -330 -328 -333 -328 -3 0 -16 16 -29 36 l-25 35 350 350
349 349 7 -57 8 -58 -327 -327z m1320 361 c5 -36 3 -38 -201 -241 l-207 -206
-69 -5 -69 -5 264 264 c280 280 269 273 282 193z m-3460 -301 l-159 -159 -58
7 -58 7 214 214 213 213 3 -62 3 -62 -158 -158z m775 -425 c-298 -298 -543
-541 -545 -540 -1 2 2 34 8 72 l11 70 531 533 532 532 3 -62 3 -62 -543 -543z
m2579 381 l-129 -131 -37 9 c-20 6 -43 12 -50 15 -10 2 48 67 160 179 l174
174 5 -57 5 -58 -128 -131z m-877 166 l0 -45 -297 -297 c-164 -164 -301 -298
-304 -298 -3 0 -14 18 -24 41 l-19 40 314 314 c210 210 317 310 322 302 4 -7
8 -32 8 -57z m-2416 -261 l-87 -87 -44 21 -43 21 127 128 128 128 3 -62 3 -62
-87 -87z m3442 71 c12 -14 3 -26 -70 -99 l-84 -83 -33 23 c-19 13 -36 25 -38
27 -3 1 42 50 100 108 l104 105 3 -33 c2 -18 10 -40 18 -48z m-1005 4 c20 -18
15 -23 -278 -316 -164 -164 -301 -298 -304 -298 -4 0 -10 23 -13 52 l-7 52
288 288 c248 248 288 285 291 264 2 -13 12 -32 23 -42z m-2767 -192 c3 -5
-103 -116 -236 -248 -132 -131 -238 -230 -235 -219 3 11 10 48 17 81 l12 61
162 161 c137 137 166 161 196 165 65 7 79 7 84 -1z m3403 -6 c1 -1 -117 -121
-263 -266 l-266 -265 6 70 7 70 202 203 202 203 55 -7 c30 -4 56 -7 57 -8z
m-1987 -191 c-107 -107 -195 -193 -197 -191 -4 4 32 107 50 143 25 48 91 127
137 163 47 37 142 79 180 80 21 0 -9 -33 -170 -195z m338 182 l32 -12 -290
-290 c-287 -287 -290 -289 -292 -255 -3 91 -10 81 240 333 158 158 244 237
257 236 11 0 35 -6 53 -12z m-1638 -13 c22 -9 40 -19 40 -23 0 -8 -603 -611
-611 -611 -4 0 -10 23 -13 52 l-7 52 273 273 c150 150 274 273 275 273 2 0 21
-7 43 -16z m3389 -21 c17 -10 31 -20 31 -23 0 -3 -144 -149 -319 -324 l-319
-319 -9 54 -10 54 286 288 c157 158 291 287 298 287 6 0 25 -8 42 -17z m-1633
-30 l35 -26 -328 -329 c-180 -180 -330 -324 -334 -320 -4 4 -12 24 -19 46
l-12 39 308 308 c170 170 310 309 312 309 2 0 19 -12 38 -27z m-1621 -43 l19
-21 -337 -337 -336 -336 -20 44 -20 45 321 322 c340 340 329 332 373 283z
m3364 -21 l23 -32 -336 -336 c-322 -321 -338 -335 -352 -316 -41 55 -50 44
297 391 178 178 329 324 335 324 5 0 21 -14 33 -31z m-1637 -46 l17 -29 -339
-339 -338 -338 -25 39 -25 39 336 337 c215 216 340 334 347 328 5 -5 18 -21
27 -37z m-1646 -47 l16 -29 -333 -333 c-320 -320 -334 -333 -352 -316 -51 46
-64 30 299 393 231 231 341 334 346 326 5 -7 16 -25 24 -41z m3359 -16 c8 -16
15 -35 15 -42 0 -15 -640 -658 -656 -658 -5 0 -21 14 -33 31 l-23 31 333 334
c184 184 337 334 341 334 4 0 14 -13 23 -30z m-1641 -85 c5 -17 -53 -79 -313
-339 l-318 -318 -34 30 -34 31 335 336 c335 335 335 335 346 308 6 -16 14 -37
18 -48z m742 -6 c-9 -29 -16 -62 -16 -73 0 -14 -106 -127 -322 -343 l-323
-322 -34 31 -34 30 369 369 c202 202 370 367 372 365 2 -2 -4 -28 -12 -57z
m-2407 -26 l12 -47 -303 -303 -303 -303 -39 26 -38 26 323 324 c178 178 327
324 330 324 4 0 12 -21 18 -47z m3355 -24 c3 -17 6 -41 6 -53 0 -14 -90 -111
-282 -303 -156 -156 -287 -283 -293 -283 -5 0 -25 9 -44 21 l-34 21 314 314
c173 173 317 314 320 314 4 0 9 -14 13 -31z m-2641 -60 l-6 -67 -298 -298
-297 -297 -35 29 -35 29 336 337 c185 186 337 336 338 335 1 -1 0 -32 -3 -68z
m979 -24 l3 -55 -260 -260 c-143 -143 -266 -260 -273 -260 -7 0 -29 7 -49 15
l-37 16 299 299 c165 165 303 300 307 300 3 0 8 -25 10 -55z m-1899 -357
c-241 -242 -243 -243 -309 -218 -28 11 -26 13 252 291 l279 279 3 -62 3 -62
-228 -228z m2329 -71 l-267 -267 -35 29 -35 30 295 296 295 295 7 -57 7 -58
-267 -268z m1243 301 l-7 -63 -196 -197 -196 -198 -58 0 c-32 0 -58 3 -58 7 0
11 513 523 518 518 2 -2 1 -32 -3 -67z m-2891 -347 l-253 -254 -36 28 -37 28
278 278 279 279 11 -52 11 -53 -253 -254z m1211 307 c-22 -110 -34 -129 -164
-262 -69 -70 -140 -135 -158 -142 -18 -8 -54 -14 -80 -14 l-48 0 225 225 c124
124 226 225 228 225 2 0 1 -15 -3 -32z m-1706 -110 c-56 -146 -190 -274 -314
-302 -25 -6 3 26 150 173 99 100 181 181 182 181 2 0 -6 -24 -18 -52z m2445
-23 c5 -17 -38 -64 -228 -254 l-234 -234 -35 29 -35 29 252 253 251 252 11
-27 c6 -16 14 -37 18 -48z m-1665 -27 l19 -43 -226 -227 -226 -228 -33 32 -33
32 237 238 c131 131 239 238 241 238 1 0 11 -19 21 -42z m1717 -87 l21 -39
-221 -221 -221 -221 -29 36 -29 36 224 224 c123 123 226 224 229 224 3 0 14
-18 26 -39z m-1645 -47 l22 -36 -109 -107 c-60 -58 -142 -135 -183 -170 -40
-36 -89 -86 -108 -113 -19 -26 -38 -48 -41 -48 -4 0 -18 17 -31 37 l-23 36
218 218 c121 121 222 219 226 219 3 0 16 -16 29 -36z m-1511 -164 c0 -3 -119
-124 -265 -270 l-264 -264 15 64 c8 36 26 83 39 105 31 52 128 147 295 288
130 110 136 113 157 98 12 -9 23 -18 23 -21z m1405 -200 c-126 -126 -231 -228
-233 -226 -6 7 35 80 70 123 30 38 373 333 387 333 3 0 -97 -103 -224 -230z
m1940 208 c19 -13 35 -25 35 -28 0 -3 -126 -131 -280 -285 -254 -254 -280
-277 -280 -250 0 17 5 50 11 75 9 41 32 67 242 278 127 127 233 232 235 232 1
0 18 -10 37 -22z m-1623 -29 l41 -21 -304 -304 -304 -304 -3 62 -3 62 263 263
c145 145 264 263 266 263 1 0 21 -9 44 -21z m-1605 -30 c27 -10 23 -13 -308
-345 l-334 -334 -3 62 -3 62 288 288 c307 308 289 294 360 267z m3376 -6 c15
-3 29 -9 32 -12 2 -4 -156 -167 -351 -362 l-354 -354 0 65 0 65 308 308 c209
210 312 305 322 301 8 -3 27 -8 43 -11z"/>
<path d="M4980 135 l-135 -135 35 0 c31 0 47 11 138 103 93 94 103 107 100
136 -3 31 -4 31 -138 -104z"/>
</g>
</svg>
